<svg width="1609" height="946" viewBox="0 0 1609 946" fill="none" xmlns="http://www.w3.org/2000/svg">
<g clip-path="url(#clip0_984_347)">
<line x1="1.50317" y1="6.1057e-05" x2="1.50302" y2="3480" stroke="#F1F4F8"/>
<line x1="41.5034" y1="6.1057e-05" x2="41.5033" y2="3480" stroke="#F1F4F8"/>
<line x1="81.5034" y1="6.1057e-05" x2="81.5033" y2="3480" stroke="#F1F4F8"/>
<line x1="121.504" y1="6.1057e-05" x2="121.504" y2="3480" stroke="#F1F4F8"/>
<line x1="161.504" y1="6.1057e-05" x2="161.504" y2="3480" stroke="#F1F4F8"/>
<line x1="201.504" y1="6.1057e-05" x2="201.504" y2="3480" stroke="#F1F4F8"/>
<line x1="241.504" y1="6.1057e-05" x2="241.504" y2="3480" stroke="#F1F4F8"/>
<line x1="281.504" y1="6.1057e-05" x2="281.504" y2="3480" stroke="#F1F4F8"/>
<line x1="321.504" y1="6.1057e-05" x2="321.504" y2="3480" stroke="#F1F4F8"/>
<line x1="361.504" y1="6.1057e-05" x2="361.504" y2="3480" stroke="#F1F4F8"/>
<line x1="401.504" y1="6.1057e-05" x2="401.504" y2="3480" stroke="#F1F4F8"/>
<line x1="441.505" y1="6.1057e-05" x2="441.504" y2="3480" stroke="#F1F4F8"/>
<line x1="481.505" y1="6.1057e-05" x2="481.504" y2="3480" stroke="#F1F4F8"/>
<line x1="521.505" y1="6.1057e-05" x2="521.505" y2="3480" stroke="#F1F4F8"/>
<line x1="561.505" y1="6.1057e-05" x2="561.505" y2="3480" stroke="#F1F4F8"/>
<line x1="601.505" y1="6.1057e-05" x2="601.505" y2="3480" stroke="#F1F4F8"/>
<line x1="641.505" y1="6.1057e-05" x2="641.505" y2="3480" stroke="#F1F4F8"/>
<line x1="681.505" y1="6.1057e-05" x2="681.505" y2="3480" stroke="#F1F4F8"/>
<line x1="721.505" y1="6.1057e-05" x2="721.505" y2="3480" stroke="#F1F4F8"/>
<line x1="761.506" y1="6.1057e-05" x2="761.505" y2="3480" stroke="#F1F4F8"/>
<line x1="801.506" y1="6.1057e-05" x2="801.505" y2="3480" stroke="#F1F4F8"/>
<line x1="841.506" y1="6.1057e-05" x2="841.505" y2="3480" stroke="#F1F4F8"/>
<line x1="881.506" y1="6.1057e-05" x2="881.505" y2="3480" stroke="#F1F4F8"/>
<line x1="921.506" y1="6.1057e-05" x2="921.506" y2="3480" stroke="#F1F4F8"/>
<line x1="961.506" y1="6.1057e-05" x2="961.506" y2="3480" stroke="#F1F4F8"/>
<line x1="1001.51" y1="6.1057e-05" x2="1001.51" y2="3480" stroke="#F1F4F8"/>
<line x1="1041.51" y1="6.1057e-05" x2="1041.51" y2="3480" stroke="#F1F4F8"/>
<line x1="1081.51" y1="6.1057e-05" x2="1081.51" y2="3480" stroke="#F1F4F8"/>
<line x1="1121.51" y1="6.1057e-05" x2="1121.51" y2="3480" stroke="#F1F4F8"/>
<line x1="1161.51" y1="6.1057e-05" x2="1161.51" y2="3480" stroke="#F1F4F8"/>
<line x1="1201.51" y1="6.1057e-05" x2="1201.51" y2="3480" stroke="#F1F4F8"/>
<line x1="1241.51" y1="6.1057e-05" x2="1241.51" y2="3480" stroke="#F1F4F8"/>
<line x1="1281.51" y1="6.1057e-05" x2="1281.51" y2="3480" stroke="#F1F4F8"/>
<line x1="1321.51" y1="6.1057e-05" x2="1321.51" y2="3480" stroke="#F1F4F8"/>
<line x1="1361.51" y1="6.1057e-05" x2="1361.51" y2="3480" stroke="#F1F4F8"/>
<line x1="1401.51" y1="6.1057e-05" x2="1401.51" y2="3480" stroke="#F1F4F8"/>
<line x1="1441.51" y1="6.1057e-05" x2="1441.51" y2="3480" stroke="#F1F4F8"/>
<line x1="1481.51" y1="6.1057e-05" x2="1481.51" y2="3480" stroke="#F1F4F8"/>
<line x1="1521.51" y1="6.1057e-05" x2="1521.51" y2="3480" stroke="#F1F4F8"/>
<line x1="1561.51" y1="6.1057e-05" x2="1561.51" y2="3480" stroke="#F1F4F8"/>
<line x1="1601.51" y1="6.1057e-05" x2="1601.51" y2="3480" stroke="#F1F4F8"/>
<line x1="2524" y1="31.4997" x2="-936" y2="31.4995" stroke="#F1F4F8"/>
<line x1="2524" y1="71.4997" x2="-936" y2="71.4995" stroke="#F1F4F8"/>
<line x1="2524" y1="111.5" x2="-936" y2="111.5" stroke="#F1F4F8"/>
<line x1="2524" y1="151.5" x2="-936" y2="151.5" stroke="#F1F4F8"/>
<line x1="2524" y1="191.5" x2="-936" y2="191.5" stroke="#F1F4F8"/>
<line x1="2524" y1="231.5" x2="-936" y2="231.5" stroke="#F1F4F8"/>
<line x1="2524" y1="271.5" x2="-936" y2="271.5" stroke="#F1F4F8"/>
<line x1="2524" y1="311.5" x2="-936" y2="311.5" stroke="#F1F4F8"/>
<line x1="2524" y1="351.5" x2="-936" y2="351.5" stroke="#F1F4F8"/>
<line x1="2524" y1="391.5" x2="-936" y2="391.5" stroke="#F1F4F8"/>
<line x1="2524" y1="431.5" x2="-936" y2="431.5" stroke="#F1F4F8"/>
<line x1="2524" y1="471.5" x2="-936" y2="471.5" stroke="#F1F4F8"/>
<line x1="2524" y1="511.5" x2="-936" y2="511.5" stroke="#F1F4F8"/>
<line x1="2524" y1="551.5" x2="-936" y2="551.5" stroke="#F1F4F8"/>
<line x1="2524" y1="591.5" x2="-936" y2="591.5" stroke="#F1F4F8"/>
<line x1="2524" y1="631.5" x2="-936" y2="631.5" stroke="#F1F4F8"/>
<line x1="2524" y1="671.5" x2="-936" y2="671.5" stroke="#F1F4F8"/>
<line x1="2524" y1="711.5" x2="-936" y2="711.5" stroke="#F1F4F8"/>
<line x1="2524" y1="751.5" x2="-936" y2="751.5" stroke="#F1F4F8"/>
<line x1="2524" y1="791.5" x2="-936" y2="791.5" stroke="#F1F4F8"/>
<line x1="2524" y1="831.5" x2="-936" y2="831.5" stroke="#F1F4F8"/>
<line x1="2524" y1="871.5" x2="-936" y2="871.5" stroke="#F1F4F8"/>
<line x1="2524" y1="911.5" x2="-936" y2="911.5" stroke="#F1F4F8"/>
</g>
<defs>
<clipPath id="clip0_984_347">
<rect width="3480" height="3490" fill="white" transform="translate(-936)"/>
</clipPath>
</defs>
</svg>
