<svg width="40" height="40" viewBox="0 0 40 40" fill="none" xmlns="http://www.w3.org/2000/svg">
<path d="M22.6388 31.8338V24.5336C22.6388 19.3527 18.9169 16.9764 14.416 16.3813C13.0813 16.2048 11.9844 17.3185 11.9844 18.6649C11.9844 20.0113 13.0952 21.0419 14.4028 21.3626C16.5022 21.8773 17.5825 23.1314 17.5825 24.895V35.0076C17.5825 38.7919 22.6388 35.6181 22.6388 31.8338Z" fill="#00BDF2"/>
<path d="M25.1668 31.8338V24.5336C25.1668 19.3527 28.8887 16.9764 33.3896 16.3813C34.7243 16.2048 35.8212 17.3185 35.8212 18.6649C35.8212 20.0113 34.7105 21.0419 33.4028 21.3626C31.3035 21.8773 30.2232 23.1314 30.2232 24.895V35.0076C30.2232 38.7919 25.1668 35.6181 25.1668 31.8338Z" fill="#00BDF2"/>
<circle cx="23.9028" cy="12.4351" r="3.79223" fill="white"/>
<path d="M6.92903 3.6001C5.48386 3.6001 4.39999 5.39604 4.39999 6.95291V33.8473C4.39999 35.4042 5.48386 37.2001 6.92903 37.2001V3.6001Z" fill="#00BDF2"/>
<path d="M6.92903 3.6001C8.37419 3.6001 9.45806 5.39604 9.45806 6.95291V33.8473C9.45806 35.4042 8.37419 37.2001 6.92903 37.2001V3.6001Z" fill="#00BDF2"/>
</svg>
