<svg width="487" height="79" viewBox="0 0 487 79" fill="none" xmlns="http://www.w3.org/2000/svg">
<path d="M156.871 5.09619V17.0305H135.937V73.5717H124.003V17.0305H103.069V5.09619H156.871Z" fill="white"/>
<path d="M196.959 24.6606H208.893V73.5717H196.959L196.421 67.5067C195.084 69.6914 193.307 71.4685 191.089 72.838C188.905 74.1749 186.312 74.8434 183.313 74.8434C179.693 74.8434 176.302 74.1586 173.139 72.7891C169.976 71.4196 167.188 69.5284 164.775 67.1154C162.395 64.7025 160.52 61.9146 159.15 58.7516C157.814 55.5887 157.145 52.1976 157.145 48.5781C157.145 45.0891 157.781 41.8121 159.053 38.747C160.357 35.6819 162.167 32.9918 164.482 30.6767C166.797 28.3616 169.471 26.5518 172.503 25.2476C175.536 23.9433 178.796 23.2911 182.285 23.2911C185.514 23.2911 188.399 24.0085 190.943 25.4432C193.519 26.8779 195.703 28.7039 197.497 30.9212L196.959 24.6606ZM183.019 63.3493C185.562 63.3493 187.812 62.7134 189.769 61.4417C191.725 60.1701 193.258 58.4582 194.366 56.3061C195.475 54.1214 196.029 51.7247 196.029 49.1162C196.029 46.475 195.475 44.0783 194.366 41.9262C193.258 39.7415 191.709 38.0133 189.72 36.7417C187.763 35.47 185.53 34.8341 183.019 34.8341C180.508 34.8341 178.209 35.4863 176.123 36.7906C174.068 38.0623 172.422 39.7741 171.183 41.9262C169.976 44.0783 169.373 46.475 169.373 49.1162C169.373 51.7574 169.992 54.154 171.231 56.3061C172.471 58.4582 174.117 60.1701 176.172 61.4417C178.258 62.7134 180.541 63.3493 183.019 63.3493Z" fill="white"/>
<path d="M233.957 74.4521C231.414 74.2891 228.952 73.7836 226.572 72.9358C224.224 72.0554 222.137 70.8653 220.311 69.3653C218.485 67.8654 217.083 66.072 216.105 63.9851L226.181 59.6809C226.572 60.3331 227.208 61.0342 228.088 61.7841C228.968 62.5015 230.012 63.1047 231.218 63.5938C232.457 64.0829 233.811 64.3275 235.278 64.3275C236.517 64.3275 237.691 64.1645 238.8 63.8384C239.941 63.4797 240.854 62.9417 241.539 62.2243C242.256 61.507 242.615 60.5776 242.615 59.4364C242.615 58.2299 242.191 57.3006 241.343 56.6485C240.528 55.9637 239.484 55.4583 238.213 55.1322C236.974 54.7735 235.767 54.4475 234.593 54.154C231.496 53.5345 228.61 52.5725 225.936 51.2682C223.295 49.9639 221.159 48.2847 219.529 46.2304C217.931 44.1435 217.132 41.6328 217.132 38.6981C217.132 35.47 217.98 32.682 219.675 30.3343C221.404 27.9866 223.637 26.1769 226.376 24.9052C229.148 23.6335 232.131 22.9976 235.327 22.9976C239.207 22.9976 242.761 23.8128 245.99 25.4432C249.25 27.041 251.826 29.3072 253.717 32.2418L244.278 37.8177C243.821 37.0351 243.185 36.3178 242.37 35.6656C241.555 34.9809 240.626 34.4265 239.582 34.0026C238.539 33.5461 237.446 33.2853 236.305 33.2201C234.838 33.1548 233.501 33.2853 232.294 33.6113C231.088 33.9374 230.11 34.4917 229.36 35.2743C228.642 36.0569 228.284 37.1003 228.284 38.4046C228.284 39.6437 228.773 40.573 229.751 41.1926C230.729 41.7795 231.903 42.236 233.273 42.5621C234.675 42.8881 236.012 43.2468 237.283 43.6381C240.153 44.5837 242.843 45.7413 245.354 47.1108C247.897 48.4803 249.935 50.1596 251.468 52.1486C253 54.1377 253.734 56.518 253.669 59.2897C253.669 62.4526 252.723 65.2242 250.832 67.6045C248.94 69.9523 246.495 71.7457 243.495 72.9848C240.528 74.2238 237.349 74.7129 233.957 74.4521Z" fill="white"/>
<path d="M306.606 73.5717H292.862L281.71 54.3496L274.863 62.5178V73.5717H262.928V0.205078H274.863V43.9805L291.052 24.6606H306.655L289.879 44.6652L306.606 73.5717Z" fill="white"/>
<path d="M356.471 5.09619H368.405V73.5717H356.471V42.8555H328.102V73.5717H316.168V5.09619H328.102V30.9212H356.471V5.09619Z" fill="white"/>
<path d="M379.105 55.4746V24.6606H391.04V52.3443C391.04 54.2681 391.513 56.0289 392.458 57.6267C393.404 59.1918 394.659 60.4472 396.224 61.3928C397.822 62.3058 399.567 62.7623 401.458 62.7623C403.414 62.7623 405.175 62.3058 406.74 61.3928C408.305 60.4472 409.561 59.1918 410.506 57.6267C411.452 56.0289 411.925 54.2681 411.925 52.3443V24.6606H423.859L423.908 73.5717H411.974L411.925 69.1208C410.229 70.8816 408.224 72.2837 405.909 73.3271C403.594 74.338 401.115 74.8434 398.474 74.8434C394.92 74.8434 391.676 73.9793 388.741 72.2511C385.806 70.4903 383.459 68.1589 381.698 65.2568C379.97 62.3221 379.105 59.0614 379.105 55.4746Z" fill="white"/>
<path d="M460.895 23.2911C465.656 23.2911 469.993 24.4487 473.906 26.7638C477.818 29.0789 480.932 32.1929 483.248 36.1058C485.563 39.9861 486.72 44.2903 486.72 49.0183C486.72 52.5725 486.052 55.9148 484.715 59.0451C483.378 62.1754 481.519 64.9307 479.139 67.3111C476.791 69.6588 474.052 71.5011 470.922 72.838C467.824 74.1749 464.482 74.8434 460.895 74.8434C457.83 74.8434 455.107 74.1586 452.727 72.7891C450.379 71.387 448.407 69.5773 446.809 67.36V73.5717H434.875V0.205078H446.809V30.7745C448.407 28.5572 450.379 26.7638 452.727 25.3943C455.107 23.9922 457.83 23.2911 460.895 23.2911ZM460.749 63.3004C463.292 63.3004 465.591 62.6645 467.645 61.3928C469.732 60.0885 471.395 58.3603 472.634 56.2083C473.873 54.0562 474.492 51.6595 474.492 49.0183C474.492 46.4097 473.873 44.0294 472.634 41.8773C471.395 39.6926 469.732 37.9644 467.645 36.6927C465.558 35.4211 463.259 34.7852 460.749 34.7852C458.27 34.7852 456.053 35.4374 454.097 36.7417C452.14 38.0133 450.608 39.7415 449.499 41.9262C448.39 44.0783 447.836 46.4424 447.836 49.0183C447.836 51.6595 448.39 54.0725 449.499 56.2572C450.608 58.4093 452.14 60.1211 454.097 61.3928C456.053 62.6645 458.27 63.3004 460.749 63.3004Z" fill="white"/>
<rect width="78.7024" height="78.7024" rx="13.3394" fill="url(#paint0_linear_424_733)"/>
<g clip-path="url(#clip0_424_733)">
<path d="M15.5335 32.7359L11.1162 45.9665H27.8392L32.2494 32.7359H15.5335Z" fill="white"/>
<path d="M35.7348 32.7359L32.4282 42.6588H62.6208L67.5862 32.7359H35.7348Z" fill="white"/>
<path d="M27.8345 65.8124H11.1162L15.5335 52.5818H32.2494L27.8392 65.8124H27.8345Z" fill="white"/>
<path d="M35.7348 52.5818L32.4282 62.5048H62.6208L67.5862 52.5818H35.7348Z" fill="white"/>
<path d="M15.5335 12.8899L11.1162 26.1206H27.8392L32.2494 12.8899H15.5335Z" fill="white"/>
<path d="M32.4282 22.8129H62.6195L67.5823 12.8899H35.7348L32.4282 22.8129Z" fill="white"/>
</g>
<defs>
<linearGradient id="paint0_linear_424_733" x1="-25.673" y1="-45.3005" x2="78.8729" y2="86.5813" gradientUnits="userSpaceOnUse">
<stop stop-color="#007AC1"/>
<stop offset="0.466196" stop-color="#00BDF2"/>
<stop offset="1" stop-color="#03497A"/>
</linearGradient>
<clipPath id="clip0_424_733">
<rect width="56.4701" height="56.4701" fill="white" transform="translate(11.1162 11.1161)"/>
</clipPath>
</defs>
</svg>
