<svg width="73" height="75" viewBox="0 0 73 75" fill="none" xmlns="http://www.w3.org/2000/svg">
<path d="M6.15646 0C8.38131 0 10.149 1.83291 10.149 4.09354V53.7048C10.149 55.9654 13.1053 56.7595 14.172 54.7738C16.6712 50.1306 19.3837 44.754 19.3837 44.2345V22.3923C19.3837 21.2925 20.7552 20.8648 21.3647 21.7507L32.1841 37.5139C33.7691 39.8049 37.0911 39.8354 38.7064 37.5445L49.922 21.6591C50.5315 20.7732 51.903 21.2314 51.903 22.3006V43.7762L57.0842 53.7659C58.1206 55.7821 61.1072 55.0184 61.1072 52.7272V4.09354C61.1072 1.83291 62.9056 0 65.0998 0H67.2027C69.4277 0 71.1954 1.83291 71.1954 4.09354V70.4455C71.1954 72.7059 69.3973 74.5388 67.2027 74.5388H53.9145C52.3908 74.5388 51.0193 73.6531 50.3184 72.2784L39.3465 49.8862C37.8835 46.8922 33.7081 46.8616 32.1841 49.8556L20.8771 72.3395C20.1761 73.7142 18.8046 74.5694 17.3112 74.5694H3.99255C1.76769 74.5694 0 72.7365 0 70.476V4.09354C0 1.83291 1.79818 0 3.99255 0H6.0955H6.15646Z" fill="white"/>
<path d="M49.3031 3.02433L36.9597 20.3149C36.1978 21.3536 34.6741 21.3536 33.9425 20.3149L21.9343 3.02433C21.0505 1.77184 21.9343 0 23.4584 0H47.8099C49.3336 0 50.2174 1.77184 49.3031 3.02433Z" fill="#00BDF2"/>
</svg>
